<svg xmlns="http://www.w3.org/2000/svg" viewBox="0 0 1200 600" preserveAspectRatio="xMidYMid slice" aria-hidden="true">
<g stroke="#ffffff" stroke-width="1" fill="none">
<line x1="150" y1="120" x2="430" y2="90" stroke-opacity="0.063"/>
<line x1="150" y1="120" x2="430" y2="210" stroke-opacity="0.051"/>
<line x1="150" y1="120" x2="430" y2="330" stroke-opacity="0.086"/>
<line x1="150" y1="120" x2="430" y2="450" stroke-opacity="0.045"/>
<line x1="150" y1="120" x2="430" y2="540" stroke-opacity="0.078"/>
<line x1="150" y1="240" x2="430" y2="90" stroke-opacity="0.066"/>
<line x1="150" y1="240" x2="430" y2="210" stroke-opacity="0.044"/>
<line x1="150" y1="240" x2="430" y2="330" stroke-opacity="0.076"/>
<line x1="150" y1="240" x2="430" y2="450" stroke-opacity="0.043"/>
<line x1="150" y1="240" x2="430" y2="540" stroke-opacity="0.07"/>
<line x1="150" y1="360" x2="430" y2="90" stroke-opacity="0.045"/>
<line x1="150" y1="360" x2="430" y2="210" stroke-opacity="0.046"/>
<line x1="150" y1="360" x2="430" y2="330" stroke-opacity="0.07"/>
<line x1="150" y1="360" x2="430" y2="450" stroke-opacity="0.098"/>
<line x1="150" y1="360" x2="430" y2="540" stroke-opacity="0.049"/>
<line x1="150" y1="480" x2="430" y2="90" stroke-opacity="0.056"/>
<line x1="150" y1="480" x2="430" y2="210" stroke-opacity="0.084"/>
<line x1="150" y1="480" x2="430" y2="330" stroke-opacity="0.106"/>
<line x1="150" y1="480" x2="430" y2="450" stroke-opacity="0.08"/>
<line x1="150" y1="480" x2="430" y2="540" stroke-opacity="0.068"/>
<line x1="430" y1="90" x2="720" y2="90" stroke-opacity="0.108"/>
<line x1="430" y1="90" x2="720" y2="210" stroke-opacity="0.043"/>
<line x1="430" y1="90" x2="720" y2="330" stroke-opacity="0.1"/>
<line x1="430" y1="90" x2="720" y2="450" stroke-opacity="0.06"/>
<line x1="430" y1="90" x2="720" y2="540" stroke-opacity="0.05"/>
<line x1="430" y1="210" x2="720" y2="90" stroke-opacity="0.048"/>
<line x1="430" y1="210" x2="720" y2="210" stroke-opacity="0.062"/>
<line x1="430" y1="210" x2="720" y2="330" stroke-opacity="0.097"/>
<line x1="430" y1="210" x2="720" y2="450" stroke-opacity="0.053"/>
<line x1="430" y1="210" x2="720" y2="540" stroke-opacity="0.081"/>
<line x1="430" y1="330" x2="720" y2="90" stroke-opacity="0.085"/>
<line x1="430" y1="330" x2="720" y2="210" stroke-opacity="0.066"/>
<line x1="430" y1="330" x2="720" y2="330" stroke-opacity="0.078"/>
<line x1="430" y1="330" x2="720" y2="450" stroke-opacity="0.044"/>
<line x1="430" y1="330" x2="720" y2="540" stroke-opacity="0.044"/>
<line x1="430" y1="450" x2="720" y2="90" stroke-opacity="0.054"/>
<line x1="430" y1="450" x2="720" y2="210" stroke-opacity="0.088"/>
<line x1="430" y1="450" x2="720" y2="330" stroke-opacity="0.07"/>
<line x1="430" y1="450" x2="720" y2="450" stroke-opacity="0.062"/>
<line x1="430" y1="450" x2="720" y2="540" stroke-opacity="0.081"/>
<line x1="430" y1="540" x2="720" y2="90" stroke-opacity="0.072"/>
<line x1="430" y1="540" x2="720" y2="210" stroke-opacity="0.061"/>
<line x1="430" y1="540" x2="720" y2="330" stroke-opacity="0.096"/>
<line x1="430" y1="540" x2="720" y2="450" stroke-opacity="0.089"/>
<line x1="430" y1="540" x2="720" y2="540" stroke-opacity="0.057"/>
<line x1="720" y1="90" x2="1010" y2="180" stroke-opacity="0.08"/>
<line x1="720" y1="90" x2="1010" y2="300" stroke-opacity="0.077"/>
<line x1="720" y1="90" x2="1010" y2="420" stroke-opacity="0.101"/>
<line x1="720" y1="210" x2="1010" y2="180" stroke-opacity="0.091"/>
<line x1="720" y1="210" x2="1010" y2="300" stroke-opacity="0.06"/>
<line x1="720" y1="210" x2="1010" y2="420" stroke-opacity="0.109"/>
<line x1="720" y1="330" x2="1010" y2="180" stroke-opacity="0.048"/>
<line x1="720" y1="330" x2="1010" y2="300" stroke-opacity="0.069"/>
<line x1="720" y1="330" x2="1010" y2="420" stroke-opacity="0.093"/>
<line x1="720" y1="450" x2="1010" y2="180" stroke-opacity="0.051"/>
<line x1="720" y1="450" x2="1010" y2="300" stroke-opacity="0.074"/>
<line x1="720" y1="450" x2="1010" y2="420" stroke-opacity="0.043"/>
<line x1="720" y1="540" x2="1010" y2="180" stroke-opacity="0.087"/>
<line x1="720" y1="540" x2="1010" y2="300" stroke-opacity="0.094"/>
<line x1="720" y1="540" x2="1010" y2="420" stroke-opacity="0.08"/>
</g>
<g>
<circle cx="150" cy="120" r="4.5" fill="#ffffff" fill-opacity="0.5"/>
<circle cx="150" cy="240" r="4.5" fill="#ffffff" fill-opacity="0.5"/>
<circle cx="150" cy="360" r="4.5" fill="#ffffff" fill-opacity="0.5"/>
<circle cx="150" cy="480" r="4.5" fill="#ffffff" fill-opacity="0.5"/>
<circle cx="430" cy="90" r="4.5" fill="#ffffff" fill-opacity="0.5"/>
<circle cx="430" cy="210" r="4.5" fill="#ffffff" fill-opacity="0.5"/>
<circle cx="430" cy="330" r="4.5" fill="#ffffff" fill-opacity="0.5"/>
<circle cx="430" cy="450" r="4.5" fill="#ffffff" fill-opacity="0.5"/>
<circle cx="430" cy="540" r="4.5" fill="#ffffff" fill-opacity="0.5"/>
<circle cx="720" cy="90" r="4.5" fill="#ffffff" fill-opacity="0.5"/>
<circle cx="720" cy="210" r="4.5" fill="#ffffff" fill-opacity="0.5"/>
<circle cx="720" cy="330" r="4.5" fill="#ffffff" fill-opacity="0.5"/>
<circle cx="720" cy="450" r="4.5" fill="#ffffff" fill-opacity="0.5"/>
<circle cx="720" cy="540" r="4.5" fill="#ffffff" fill-opacity="0.5"/>
<circle cx="1010" cy="180" r="6" fill="#e3b94e" fill-opacity="0.9"/>
<circle cx="1010" cy="180" r="11" fill="none" stroke="#e3b94e" stroke-opacity="0.25" stroke-width="1.4"/>
<circle cx="1010" cy="300" r="6" fill="#3ec9a6" fill-opacity="0.9"/>
<circle cx="1010" cy="300" r="11" fill="none" stroke="#3ec9a6" stroke-opacity="0.25" stroke-width="1.4"/>
<circle cx="1010" cy="420" r="6" fill="#e3b94e" fill-opacity="0.9"/>
<circle cx="1010" cy="420" r="11" fill="none" stroke="#e3b94e" stroke-opacity="0.25" stroke-width="1.4"/>
</g>
</svg>